
	<svg xmlns="http://www.w3.org/2000/svg" xmlns:xlink="http://www.w3.org/1999/xlink" version="1.1" width="128" height="128" viewBox="0 0 100 100">


		<defs>
			<linearGradient id="Gradient_2" gradientUnits="userSpaceOnUse" x1="50" y1="50" x2="50" y2="0" spreadMethod="pad">
			<stop offset="0%" stop-color="#FFFFFF" stop-opacity="0.7"/>
			<stop offset="100%" stop-color="#FFFFFF" stop-opacity="0.1"/>
		</linearGradient><linearGradient id="Gradient_3" gradientUnits="userSpaceOnUse" x1="50" y1="75" x2="50" y2="0" spreadMethod="pad">
			<stop offset="0%" stop-color="#FFFFFF" stop-opacity="0.1"/>
			<stop offset="100%" stop-color="#FFFFFF" stop-opacity="0.7"/>
		</linearGradient><g id="background">
			<path fill="url(#background-gradient)" stroke="none" d=" M 93.35 75 L 93.35 25 50 0 6.65 25 6.65 75 50 100 93.35 75 Z"/>
		</g><mask id="mask">
			<path fill="#FFFFFF" stroke="none" d=" M 93.35 75 L 93.35 25 50 0 6.65 25 6.65 75 50 100 93.35 75 Z"/>
		</mask><g id="gloss-top">
			<path fill="url(#Gradient_2)" stroke="none" d=" M 93.35 25.05 L 93.35 25 50 0 6.65 25 6.65 25.05 50 50 93.35 25.05 Z"/>
		</g><g id="gloss-right">
			<path fill="url(#Gradient_3)" stroke="none" d=" M 93.35 75 L 93.35 25 50 0 6.65 25 93.35 75 Z"/>
		</g><g id="gloss-left">
			<path fill="url(#Gradient_3)" stroke="none" d=" M 6.65 25 L 6.65 75 93.35 25 50 0 6.65 25 Z"/>
		</g>
			
	<linearGradient id="background-gradient" x1="0" y1="0" y2="1" x2="0" >
		<stop stop-color="#98FEEE" offset="0%"/>
		<stop stop-color="#84FDA7" offset="100%"/>
	</linearGradient>

			
			
			<g transform="scale(0.3366345808407379) translate(-1.9710121154785156 -1.9709701538085938)" id="picture"><path d="M78.216 146.54h1.98c10.892 37.627 37.628 63.372 68.324 63.372 31.686 0 61.392-26.736 73.274-63.373 9.902 0 17.824-12.872 17.824-29.706 0-4.95-.99-9.902-1.98-13.862.99-5.942 1.98-11.883 1.98-16.834 0-45.549-41.589-84.166-90.108-84.166-48.52 0-88.128 37.627-88.128 84.166 0 4.951.99 10.892 1.98 16.834-.99 4.95-1.98 8.911-1.98 13.862 0 16.834 7.922 29.706 16.834 29.706zm97.039-45.55c-7.922 0-14.853 2.97-19.804 7.922l-1.98-1.98c-1.98-1.981-4.951-1.981-6.932 0l-1.98 1.98c-4.951-4.951-11.883-7.922-19.804-7.922-8.912 0-16.833 3.961-20.794 9.902l-12.873-3.96v-.99c0-15.844 2.97-31.687 5.941-34.658h12.873c15.843 0 23.765-4.95 27.725-11.882 10.893 14.853 35.647 29.706 62.383 31.686.99 5.941 3.96 10.892 6.931 13.863l-10.892 4.951c-4.951-4.951-11.882-8.912-20.794-8.912zm0 9.902c7.921 0 14.853 4.951 14.853 9.902s-6.932 9.902-14.853 9.902-14.853-4.95-14.853-9.902 6.931-9.902 14.853-9.902zm-34.657 9.902c0 4.951-6.931 9.902-14.853 9.902s-14.853-4.95-14.853-9.902 6.932-9.902 14.853-9.902 14.853 4.951 14.853 9.902zm81.196 15.843h-.99c-.99-.99-2.97-.99-4.951 0-.99.99-2.97 1.98-2.97 2.97-8.912 33.667-36.638 60.403-64.363 60.403-26.736 0-50.5-23.765-59.412-59.412 0-1.98-.99-2.97-2.97-2.97h-7.922c-2.97 0-7.922-7.922-7.922-19.804v-4.951L100 120.794v.99c0 10.892 10.892 19.804 24.755 19.804s24.755-8.912 24.755-19.804v-2.97 2.97c0 10.892 10.892 19.804 24.755 19.804s24.755-8.912 24.755-19.804v-1.98l17.823-7.922h12.873v5.942c0 11.882-4.951 18.813-7.922 18.813zm20.794 61.392l-31.686-5.94c-1.98 0-2.97 0-4.951 1.98-15.843 15.843-35.647 25.745-56.441 25.745s-41.588-9.902-57.432-26.736c-.99-.99-2.97-1.98-4.95-1.98l-32.677 5.941c-31.686 11.883-52.48 53.47-52.48 85.157v11.882c0 2.971 1.98 4.951 4.95 4.951h287.157c2.971 0 4.951-1.98 4.951-4.95v-8.912c0-32.677-22.774-76.245-56.44-87.138z M168.154 112.108c-1.195-4.456-4.181-7.798-8.362-10.026-4.18-2.228-8.958-2.785-13.139-1.114-9.556 2.785-14.93 11.697-11.945 20.608 6.57 21.722 29.862 41.773 51.96 57.925.597.557 1.194.557 1.792.557.597 0 1.791-.557 2.388-1.114 1.195-1.114.598-2.785-.597-3.9-20.903-16.151-43.598-35.088-49.57-55.139-1.792-6.126 1.791-12.253 8.361-13.924 2.986-.557 5.972-.557 8.959 1.114 2.986 1.67 4.777 3.899 5.972 6.684 4.18 13.367 24.487 31.19 41.21 43.443 1.194 1.114 2.985.557 4.18-.557 1.194-1.114.597-2.785-.598-3.899-23.889-16.709-37.625-31.19-40.611-40.658zm28.667-8.355c-7.764-22.836-33.445-36.203-57.932-29.52-11.945 3.343-22.098 11.14-28.07 21.723s-7.764 22.278-4.18 33.975c4.777 16.709-7.765 25.62-15.529 27.848-1.791.557-2.389 2.228-1.791 3.342.597 1.67 1.791 2.228 2.986 2.228h1.194c13.14-3.9 23.89-16.71 18.514-35.646-2.986-10.026-1.791-20.051 3.584-29.52 5.375-9.468 14.333-15.595 24.486-18.936 21.5-6.127 44.196 6.126 50.765 26.177v.557c.598.557 1.195 1.67 24.487 20.05 1.195 1.115 2.986 1.115 4.18-.556 1.195-1.114 1.195-2.785-.597-3.899-9.555-7.24-20.903-16.709-22.097-17.823zm-14.334 4.456c-2.389-7.798-7.764-14.481-15.528-18.38-7.764-3.899-16.125-5.013-24.487-2.785-16.722 4.456-26.278 21.165-22.097 37.874 7.764 32.304-.598 41.772-16.723 46.785-1.792.557-2.389 2.228-1.792 3.342.598 1.114 1.792 1.67 2.987 1.67h1.194c22.098-6.683 28.07-21.72 20.903-53.468-3.583-14.481 4.778-27.848 17.917-31.747 6.57-1.671 13.737-1.114 19.71 2.228 6.569 3.342 10.75 8.911 13.138 15.038 1.792 5.57 5.375 12.81 32.848 33.418 1.195 1.114 2.986.557 4.18-.557 1.195-1.114.598-2.785-.596-3.899-28.668-20.05-30.46-26.177-31.654-29.52zm10.75 49.57c-12.542-8.912-34.042-24.507-39.417-41.773-.597-1.67-1.792-2.227-3.584-1.67-1.791.556-2.388 2.227-1.791 3.341 5.972 18.937 28.07 35.09 41.209 44.558 3.583 2.784 6.57 4.455 7.764 6.126.597.557 1.195 1.114 2.389 1.114.597 0 1.792 0 1.792-.557 1.194-1.114 1.194-2.785 0-3.899-1.195-2.227-4.181-4.455-8.362-7.24zm-17.917 25.063c-4.18-5.57-11.347-13.924-20.306-13.924-2.389 0-4.778 1.114-5.972 2.785-5.972 6.127-5.972 21.165-5.972 22.836 0 1.67 1.194 2.785 2.986 2.785s2.986-1.114 2.986-2.785c0-5.57.597-15.595 4.18-18.38.598-1.671 1.195-1.671 1.792-1.671 5.973 0 11.348 7.24 15.528 11.696 1.195 1.671 2.39 3.342 3.584 3.899a3.033 3.033 0 0 0 4.18 0c1.195-1.114 1.195-2.785 0-3.899-1.194-.557-1.791-1.67-2.986-3.342zm-41.806-36.202c-1.792.557-2.39 2.227-1.792 3.341 2.986 9.469-2.986 32.304-13.139 35.646-1.792.557-2.389 2.228-1.792 3.342 0 1.671 1.195 2.228 2.39 2.228h1.194c13.736-4.456 20.903-30.633 16.722-42.33-.597-1.67-2.389-2.784-3.583-2.227zm-41.21-27.292c1.792 0 2.987-1.114 2.987-2.785 0-29.519 25.084-53.468 56.14-53.468 30.459 0 41.21 16.152 49.57 28.405 4.778 7.24 8.959 13.367 16.126 15.595 1.791.557 2.986-.557 3.583-1.671.597-1.67-.597-2.785-1.792-3.342-4.777-1.67-8.36-7.24-12.541-13.367-9.556-13.367-21.5-31.19-54.946-31.19-34.042 0-62.112 26.177-62.112 59.038 0 1.671 1.194 2.785 2.986 2.785zm2.987 24.507c.597 0 1.194 0 1.194-.557 1.195-.557 1.792-2.228 1.195-3.899-.597-.557-2.39-4.456-2.39-6.684 0-1.67-1.194-2.784-2.985-2.784s-2.987 1.113-2.987 2.784c0 3.9 2.987 8.912 3.584 9.469.597 1.114 1.194 1.67 2.389 1.67zm-1.195-76.862c1.195.557 2.987.557 4.181-1.114 3.583-5.012 19.112-19.493 48.973-19.493 28.668 0 48.974 13.924 52.557 19.493.597 1.114 1.792 1.114 2.389 1.114.597 0 1.194 0 1.792-.557 1.194-.557 1.791-2.228 1.194-3.898-4.778-7.798-26.875-22.28-57.932-22.28-32.25.558-50.167 16.71-53.75 22.837-1.195 1.67-.598 3.341.596 3.898zm21.5-25.063c1.793-.557 2.987-1.114 4.779-2.228 5.375-2.228 9.555-4.456 27.473-4.456 20.306 0 27.472 2.785 35.236 5.57 1.195.557 2.987 1.114 4.181 1.67h1.195c1.194 0 2.388-.556 2.986-1.67.597-1.671 0-2.785-1.792-3.342-1.792-1.114-2.986-1.67-4.778-2.228-7.764-2.785-16.125-5.57-37.626-5.57-19.111 0-23.89 2.228-30.459 5.57-.597.557-1.791 1.114-3.583 1.671-1.792.557-2.389 2.228-1.195 3.899s2.39 1.67 3.584 1.114zm99.142 46.785c.597 1.114 1.792 2.228 2.986 2.228h.597c1.792-.557 2.39-2.228 1.792-3.342-1.792-5.57-7.764-13.924-7.764-14.481-.597-1.114-2.986-1.671-4.18-1.114-1.195.557-1.792 2.785-1.195 3.899 1.194 0 5.972 7.797 7.764 12.81z"/></g>
			
	<linearGradient id="picture-gradient" x1="0" y1="0" y2="1" x2="0" >
		<stop stop-color="#000000" offset="0%"/>
		<stop stop-color="#000000" offset="100%"/>
	</linearGradient>

		</defs>

		

			<use xlink:href="#background" fill="url(#background-gradient)" />

		

			<g mask="url(#mask)">
				<g transform="
				        translate(
                                50 50
)
                            translate(0 0)  scale(0.6)  
                            translate(
                                -50 -50
)">
						<use xlink:href="#picture" fill="url(#picture-gradient)"  />
				</g>
			</g>

		

			<use xlink:href="#gloss-top" opacity="1" />


	</svg>
